<?xml version="1.0" encoding="UTF-8" standalone="no"?>
<!DOCTYPE svg PUBLIC "-//W3C//DTD SVG 1.1//EN" "http://www.w3.org/Graphics/SVG/1.1/DTD/svg11.dtd">
<svg width="100%" height="100%" viewBox="0 0 724 327" version="1.1" xmlns="http://www.w3.org/2000/svg" xmlns:xlink="http://www.w3.org/1999/xlink" xml:space="preserve" xmlns:serif="http://www.serif.com/" style="fill-rule:evenodd;clip-rule:evenodd;stroke-linejoin:round;stroke-miterlimit:2;">
    <g>
        <rect x="331.191" y="204.104" width="32.774" height="119.324" style="fill:rgb(238,48,46);fill-rule:nonzero;"/>
        <rect x="331.334" y="0.458" width="32.771" height="26.585" style="fill:rgb(149,188,69);fill-rule:nonzero;"/>
        <rect x="331.331" y="59.23" width="32.774" height="119.323" style="fill:rgb(149,188,69);fill-rule:nonzero;"/>
        <path d="M116.679,294.342C118.135,296.878 120.023,298.954 122.336,300.57C124.641,302.187 127.293,303.378 130.298,304.146C133.299,304.917 136.41,305.304 139.643,305.304C141.948,305.304 144.377,305.033 146.914,304.494C149.453,303.958 151.758,303.11 153.839,301.955C155.914,300.802 157.647,299.269 159.031,297.337C160.416,295.417 161.106,292.996 161.106,290.072C161.106,285.151 157.837,281.453 151.299,278.994C144.758,276.532 135.639,274.072 123.947,271.604C119.177,270.535 114.524,269.261 109.986,267.799C105.446,266.337 101.406,264.417 97.868,262.026C94.329,259.644 91.482,256.643 89.33,253.029C87.174,249.415 86.096,244.99 86.096,239.753C86.096,232.063 87.597,225.757 90.598,220.83C93.599,215.908 97.556,212.023 102.484,209.177C107.405,206.33 112.943,204.327 119.103,203.174C125.254,202.019 131.566,201.442 138.027,201.442C144.487,201.442 150.754,202.061 156.834,203.29C162.914,204.526 168.338,206.601 173.111,209.525C177.877,212.449 181.84,216.334 184.996,221.178C188.146,226.022 190.031,232.14 190.65,239.527L159.493,239.527C159.031,233.215 156.641,228.952 152.338,226.716C148.03,224.486 142.948,223.366 137.104,223.366C135.258,223.366 133.254,223.482 131.101,223.715C128.946,223.947 126.987,224.45 125.218,225.215C123.45,225.986 121.949,227.103 120.717,228.565C119.484,230.026 118.871,231.991 118.871,234.448C118.871,237.371 119.945,239.753 122.104,241.602C124.254,243.451 127.064,244.952 130.526,246.104C133.986,247.256 137.949,248.295 142.412,249.221C146.875,250.144 151.412,251.147 156.03,252.219C160.797,253.297 165.453,254.607 169.994,256.146C174.528,257.685 178.568,259.722 182.108,262.259C185.645,264.798 188.491,267.951 190.65,271.72C192.803,275.496 193.877,280.146 193.877,285.684C193.877,293.532 192.299,300.109 189.149,305.42C185.994,310.729 181.876,314.998 176.8,318.226C171.726,321.459 165.915,323.731 159.377,325.035C152.836,326.342 146.181,327 139.411,327C132.486,327 125.718,326.303 119.103,324.918C112.487,323.534 106.598,321.227 101.448,317.993C96.288,314.766 92.057,310.496 88.752,305.188C85.441,299.879 83.637,293.225 83.327,285.222L114.485,285.222C114.485,288.762 115.212,291.799 116.679,294.342Z" style="fill:rgb(238,48,46);fill-rule:nonzero;"/>
        <path d="M410.883,294.342C412.339,296.878 414.227,298.954 416.537,300.57C418.844,302.187 421.497,303.378 424.498,304.146C427.499,304.917 430.614,305.304 433.847,305.304C436.151,305.304 438.578,305.033 441.118,304.494C443.654,303.958 445.962,303.11 448.043,301.955C450.115,300.802 451.848,299.269 453.235,297.337C454.62,295.417 455.307,292.996 455.307,290.072C455.307,285.151 452.041,281.453 445.503,278.994C438.962,276.532 429.84,274.072 418.151,271.604C413.381,270.535 408.725,269.261 404.19,267.799C399.65,266.337 395.613,264.417 392.073,262.026C388.533,259.644 385.686,256.643 383.534,253.029C381.375,249.415 380.301,244.99 380.301,239.753C380.301,232.063 381.801,225.757 384.802,220.83C387.803,215.908 391.76,212.023 396.688,209.177C401.609,206.33 407.147,204.327 413.304,203.174C419.458,202.019 425.77,201.442 432.23,201.442C438.691,201.442 444.958,202.061 451.038,203.29C457.117,204.526 462.542,206.601 467.312,209.525C472.081,212.449 476.041,216.334 479.197,221.178C482.35,226.022 484.235,232.14 484.854,239.527L453.697,239.527C453.235,233.215 450.844,228.952 446.542,226.716C442.231,224.486 437.152,223.366 431.307,223.366C429.458,223.366 427.458,223.482 425.305,223.715C423.15,223.947 421.191,224.45 419.422,225.215C417.654,225.986 416.153,227.103 414.92,228.565C413.688,230.026 413.074,231.991 413.074,234.448C413.074,237.371 414.149,239.753 416.305,241.602C418.457,243.451 421.265,244.952 424.731,246.104C428.19,247.256 432.153,248.295 436.616,249.221C441.079,250.144 445.616,251.147 450.231,252.219C455.001,253.297 459.657,254.607 464.197,256.146C468.732,257.685 472.772,259.722 476.312,262.259C479.849,264.798 482.695,267.951 484.854,271.72C487.006,275.496 488.081,280.146 488.081,285.684C488.081,293.532 486.503,300.109 483.353,305.42C480.197,310.729 476.08,314.998 471.003,318.226C465.927,321.459 460.119,323.731 453.58,325.035C447.039,326.342 440.385,327 433.615,327C426.69,327 419.919,326.303 413.304,324.918C406.691,323.534 400.802,321.227 395.648,317.993C390.492,314.766 386.261,310.496 382.953,305.188C379.643,299.879 377.838,293.225 377.532,285.222L408.689,285.222C408.689,288.762 409.415,291.799 410.883,294.342Z" style="fill:rgb(238,48,46);fill-rule:nonzero;"/>
        <path d="M525.447,294.342C526.906,296.878 528.791,298.954 531.104,300.57C533.409,302.187 536.064,303.378 539.065,304.146C542.066,304.917 545.178,305.304 548.411,305.304C550.718,305.304 553.145,305.033 555.682,304.494C558.221,303.958 560.526,303.11 562.607,301.955C564.682,300.802 566.415,299.269 567.799,297.337C569.184,295.417 569.874,292.996 569.874,290.072C569.874,285.151 566.605,281.453 560.067,278.994C553.526,276.532 544.407,274.072 532.715,271.604C527.948,270.535 523.292,269.261 518.754,267.799C514.214,266.337 510.177,264.417 506.64,262.026C503.097,259.644 500.251,256.643 498.098,253.029C495.942,249.415 494.865,244.99 494.865,239.753C494.865,232.063 496.365,225.757 499.366,220.83C502.37,215.908 506.324,212.023 511.252,209.177C516.172,206.33 521.714,204.327 527.871,203.174C534.022,202.019 540.334,201.442 546.794,201.442C553.255,201.442 559.522,202.061 565.602,203.29C571.684,204.526 577.106,206.601 581.879,209.525C586.645,212.449 590.608,216.334 593.764,221.178C596.914,226.022 598.802,232.14 599.418,239.527L568.261,239.527C567.799,233.215 565.411,228.952 561.106,226.716C556.798,224.486 551.716,223.366 545.871,223.366C544.026,223.366 542.022,223.482 539.869,223.715C537.714,223.947 535.755,224.45 533.989,225.215C532.218,225.986 530.717,227.103 529.487,228.565C528.252,230.026 527.639,231.991 527.639,234.448C527.639,237.371 528.713,239.753 530.872,241.602C533.024,243.451 535.832,244.952 539.295,246.104C542.754,247.256 546.717,248.295 551.18,249.221C555.643,250.144 560.18,251.147 564.798,252.219C569.565,253.297 574.221,254.607 578.762,256.146C583.296,257.685 587.336,259.722 590.876,262.259C594.416,264.798 597.262,267.951 599.418,271.72C601.57,275.496 602.645,280.146 602.645,285.684C602.645,293.532 601.067,300.109 597.917,305.42C594.761,310.729 590.647,314.998 585.571,318.226C580.494,321.459 574.683,323.731 568.147,325.035C561.603,326.342 554.949,327 548.179,327C541.257,327 534.486,326.303 527.871,324.918C521.255,323.534 515.369,321.227 510.216,317.993C505.056,314.766 500.825,310.496 497.52,305.188C494.21,299.879 492.405,293.225 492.096,285.222L523.253,285.222C523.253,288.762 523.979,291.799 525.447,294.342Z" style="fill:rgb(238,48,46);fill-rule:nonzero;"/>
        <path d="M646.345,295.379C651.195,300.151 658.177,302.536 667.276,302.536C673.793,302.536 679.408,300.881 684.106,297.57C688.807,294.265 691.692,290.761 692.755,287.069L721.191,287.069C716.639,301.381 709.66,311.617 700.258,317.768C690.856,323.919 679.48,326.997 666.138,326.997C656.885,326.997 648.543,325.497 641.114,322.496C633.68,319.495 627.389,315.225 622.232,309.685C617.076,304.147 613.095,297.534 610.291,289.841C607.483,282.148 606.081,273.686 606.081,264.451C606.081,255.528 607.522,247.224 610.404,239.528C613.283,231.832 617.377,225.18 622.688,219.559C627.996,213.95 634.326,209.523 641.683,206.292C649.037,203.059 657.189,201.442 666.138,201.442C676.145,201.442 684.869,203.404 692.297,207.329C699.725,211.253 705.832,216.525 710.613,223.141C715.389,229.756 718.836,237.298 720.962,245.756C723.082,254.221 723.838,263.063 723.234,272.299L638.384,272.299C638.84,282.916 641.49,290.612 646.345,295.379ZM682.856,232.603C678.991,228.295 673.111,226.136 665.227,226.136C660.071,226.136 655.786,227.026 652.377,228.792C648.962,230.563 646.232,232.758 644.187,235.372C642.136,237.989 640.695,240.757 639.864,243.681C639.027,246.605 638.536,249.222 638.384,251.526L690.933,251.526C689.415,243.22 686.723,236.911 682.856,232.603Z" style="fill:rgb(238,48,46);fill-rule:nonzero;"/>
        <path d="M31.157,58.936L31.157,81.093L31.621,81.093C33.155,77.401 35.233,73.98 37.85,70.824C40.464,67.668 43.465,64.977 46.853,62.747C50.235,60.52 53.85,58.787 57.699,57.551C61.546,56.322 65.547,55.708 69.701,55.708C71.853,55.708 74.235,56.093 76.855,56.861L76.855,87.327C75.316,87.018 73.47,86.75 71.317,86.517C69.159,86.285 67.081,86.169 65.083,86.169C59.087,86.169 54.01,87.172 49.854,89.17C45.701,91.174 42.351,93.904 39.812,97.364C37.275,100.829 35.465,104.866 34.39,109.481C33.309,114.099 32.773,119.1 32.773,124.48L32.773,178.259L0,178.259L0,58.936L31.157,58.936Z" style="fill:rgb(149,188,69);fill-rule:nonzero;"/>
        <path d="M290.914,232.8C288.253,234.006 285.341,234.994 282.271,235.855L282.271,267.217C282.271,279.377 280.267,288.109 276.272,293.415C272.267,298.723 265.807,301.382 256.884,301.382C249.036,301.382 243.572,298.952 240.5,294.111C237.415,289.261 235.882,281.916 235.882,272.067L235.882,237.072C235.266,236.939 234.658,236.885 234.045,236.739C227.013,235.048 220.484,232.368 214.642,228.772C210.283,226.089 206.437,222.799 203.108,219.003L203.108,278.07C203.108,285.453 203.76,292.185 205.067,298.265C206.374,304.344 208.649,309.498 211.879,313.723C215.11,317.959 219.528,321.228 225.149,323.533C230.761,325.846 237.957,326.998 246.728,326.998C253.653,326.998 260.42,325.459 267.036,322.381C273.652,319.308 279.041,314.303 283.191,307.378L283.888,307.378L283.888,323.997L315.042,323.997L315.042,213.924C314.399,214.82 313.809,215.734 313.104,216.604C307.864,223.058 300.397,228.507 290.914,232.8Z" style="fill:rgb(238,48,46);fill-rule:nonzero;"/>
        <path d="M378.034,92.751C380.958,84.983 385.114,78.362 390.497,72.901C395.883,67.444 402.344,63.207 409.885,60.203C417.424,57.208 425.885,55.708 435.275,55.708C444.657,55.708 453.163,57.208 460.776,60.203C468.392,63.207 474.891,67.444 480.28,72.901C485.666,78.362 489.819,84.983 492.743,92.751C495.664,100.518 497.132,109.176 497.132,118.715C497.132,128.255 495.664,136.871 492.743,144.564C489.819,152.26 485.666,158.837 480.28,164.295C474.891,169.761 468.392,173.953 460.776,176.874C453.163,179.797 444.657,181.259 435.275,181.259C425.885,181.259 417.424,179.797 409.885,176.874C402.344,173.953 395.883,169.761 390.497,164.295C385.114,158.837 380.958,152.26 378.034,144.564C375.111,136.871 373.655,128.255 373.655,118.715C373.655,109.176 375.111,100.518 378.034,92.751ZM407.81,132.679C408.733,137.213 410.311,141.298 412.538,144.91C414.768,148.524 417.73,151.412 421.428,153.562C425.12,155.72 429.738,156.795 435.275,156.795C440.816,156.795 445.467,155.72 449.236,153.562C453.005,151.412 456.006,148.524 458.239,144.91C460.469,141.298 462.047,137.213 462.967,132.679C463.893,128.138 464.352,123.482 464.352,118.715C464.352,113.949 463.893,109.251 462.967,104.636C462.047,100.018 460.469,95.946 458.239,92.403C456.006,88.866 453.005,85.981 449.236,83.748C445.467,81.518 440.816,80.404 435.275,80.404C429.738,80.404 425.12,81.518 421.428,83.748C417.73,85.981 414.768,88.866 412.538,92.403C410.311,95.946 408.733,100.018 407.81,104.636C406.884,109.251 406.426,113.949 406.426,118.715C406.426,123.482 406.884,128.138 407.81,132.679Z" style="fill:rgb(149,188,69);fill-rule:nonzero;"/>
        <path d="M115.374,149.64C120.15,154.412 127.019,156.794 135.971,156.794C142.384,156.794 147.913,155.145 152.537,151.834C157.161,148.526 160.001,145.022 161.046,141.33L189.029,141.33C184.549,155.642 177.683,165.875 168.43,172.029C159.176,178.186 147.982,181.258 134.855,181.258C125.747,181.258 117.536,179.758 110.227,176.757C102.912,173.761 96.718,169.489 91.645,163.951C86.572,158.411 82.654,151.798 79.894,144.102C77.131,136.408 75.752,127.944 75.752,118.714C75.752,109.792 77.17,101.485 80.007,93.789C82.838,86.096 86.867,79.442 92.095,73.82C97.317,68.211 103.549,63.784 110.789,60.554C118.024,57.32 126.045,55.707 134.855,55.707C144.701,55.707 153.284,57.666 160.596,61.59C167.906,65.514 173.917,70.787 178.621,77.402C183.319,84.018 186.713,91.559 188.803,100.018C190.89,108.482 191.635,117.33 191.042,126.56L107.541,126.56C107.988,137.177 110.596,144.873 115.374,149.64ZM151.304,86.864C147.499,82.559 141.715,80.403 133.956,80.403C128.882,80.403 124.664,81.288 121.308,83.056C117.95,84.828 115.264,87.019 113.249,89.633C111.233,92.25 109.816,95.019 108.997,97.942C108.172,100.866 107.69,103.483 107.541,105.787L159.254,105.787C157.759,97.481 155.109,91.172 151.304,86.864Z" style="fill:rgb(149,188,69);fill-rule:nonzero;"/>
        <path d="M284.874,58.936L284.874,74.864L284.409,74.864C280.411,67.939 275.445,63.018 269.526,60.088C263.598,57.17 256.715,55.708 248.87,55.708C240.56,55.708 233.209,57.319 226.826,60.553C220.442,63.786 215.092,68.133 210.787,73.596C206.479,79.056 203.207,85.362 200.98,92.52C198.75,99.674 197.634,107.096 197.634,114.792C197.634,122.947 198.589,130.676 200.516,137.985C202.439,145.297 205.479,151.681 209.635,157.144C213.788,162.604 219.097,166.916 225.557,170.065C232.024,173.218 239.714,174.796 248.637,174.796C255.869,174.796 262.756,173.296 269.294,170.295C275.832,167.294 280.869,162.643 284.409,156.331L284.874,156.331L284.874,172.028C285.023,180.486 282.986,187.495 278.756,193.026C274.525,198.567 267.793,201.336 258.564,201.336C252.713,201.336 247.56,200.145 243.097,197.76C238.634,195.372 235.633,191.103 234.099,184.952L201.558,184.952C201.766,188.03 202.308,190.883 203.109,193.565C204.064,196.781 205.407,199.734 207.211,202.378C210.519,207.222 214.673,211.185 219.674,214.263C224.554,217.264 229.97,219.476 235.88,220.941C236.023,220.977 236.148,221.037 236.291,221.072C242.37,222.534 248.328,223.264 254.175,223.264C265.456,223.264 274.748,221.939 282.269,219.432C283.879,218.896 285.511,218.375 286.949,217.723C295.104,214.031 301.338,209.529 305.646,204.221C308.764,200.377 311.071,196.304 312.619,192.014C313.209,190.382 313.709,188.727 314.072,187.03C315.373,180.873 316.031,175.416 316.031,170.643L316.031,58.936L284.874,58.936ZM283.141,129.446C281.989,133.367 280.256,136.872 277.949,139.944C275.644,143.023 272.721,145.485 269.178,147.334C265.638,149.177 261.565,150.103 256.946,150.103C251.871,150.103 247.637,149.028 244.255,146.869C240.867,144.717 238.136,141.948 236.061,138.56C233.983,135.178 232.521,131.373 231.676,127.139C230.827,122.908 230.407,118.636 230.407,114.328C230.407,109.865 230.905,105.598 231.908,101.517C232.905,97.447 234.519,93.827 236.752,90.671C238.982,87.521 241.751,85.017 245.062,83.174C248.366,81.325 252.332,80.405 256.946,80.405C262.33,80.405 266.793,81.402 270.336,83.4C273.873,85.401 276.716,88.098 278.872,91.481C281.027,94.863 282.566,98.748 283.489,103.136C284.409,107.522 284.874,112.175 284.874,117.1C284.874,121.408 284.296,125.522 283.141,129.446Z" style="fill:rgb(149,188,69);fill-rule:nonzero;"/>
    </g>
</svg>
