<svg xmlns="http://www.w3.org/2000/svg" width="723.435" height="326.542" viewBox="0 0 723.435 326.542">
  <g id="logo-3" transform="translate(0 -0.458)">
    <rect id="Rectangle_1" data-name="Rectangle 1" width="32.774" height="119.324" transform="translate(331.191 204.104)" fill="#FF0000"/>
    <rect id="Rectangle_2" data-name="Rectangle 2" width="32.771" height="26.585" transform="translate(331.334 0.458)" fill="#a2bc33"/>
    <rect id="Rectangle_3" data-name="Rectangle 3" width="32.774" height="119.323" transform="translate(331.331 59.23)" fill="#a2bc33"/>
    <path id="Path_1" data-name="Path 1" d="M116.679,294.342a19.066,19.066,0,0,0,5.657,6.228,24.112,24.112,0,0,0,7.962,3.576,37.385,37.385,0,0,0,9.345,1.158,35.047,35.047,0,0,0,7.271-.81,24.671,24.671,0,0,0,6.925-2.539,15.651,15.651,0,0,0,5.192-4.618,12.1,12.1,0,0,0,2.075-7.265q0-7.381-9.807-11.078t-27.352-7.39q-7.155-1.6-13.961-3.8a47.5,47.5,0,0,1-12.118-5.773,28,28,0,0,1-8.538-9A25.489,25.489,0,0,1,86.1,239.753q0-11.535,4.5-18.923a33.149,33.149,0,0,1,11.886-11.653,52.017,52.017,0,0,1,16.619-6,102.36,102.36,0,0,1,18.924-1.732,94.683,94.683,0,0,1,18.807,1.848,49.9,49.9,0,0,1,16.277,6.235A37.433,37.433,0,0,1,185,221.178q4.725,7.266,5.654,18.349H159.493q-.693-9.468-7.155-12.811a32.732,32.732,0,0,0-15.234-3.35,56.064,56.064,0,0,0-6,.349,20.178,20.178,0,0,0-5.883,1.5,12.166,12.166,0,0,0-4.5,3.35,8.83,8.83,0,0,0-1.846,5.883A8.977,8.977,0,0,0,122.1,241.6a24.78,24.78,0,0,0,8.422,4.5,106.16,106.16,0,0,0,11.886,3.117q6.694,1.385,13.618,3a138.988,138.988,0,0,1,13.964,3.927,46.066,46.066,0,0,1,12.114,6.113,29.668,29.668,0,0,1,8.542,9.461q3.229,5.664,3.227,13.964,0,11.772-4.728,19.736A37.842,37.842,0,0,1,176.8,318.226a50.473,50.473,0,0,1-17.423,6.809A101.647,101.647,0,0,1,139.411,327a98.825,98.825,0,0,1-20.308-2.082,53.489,53.489,0,0,1-17.655-6.925,39.473,39.473,0,0,1-12.7-12.805q-4.966-7.963-5.425-19.966h31.158A17.942,17.942,0,0,0,116.679,294.342Z" fill="#FF0000"/>
    <path id="Path_2" data-name="Path 2" d="M410.883,294.342a19.091,19.091,0,0,0,5.654,6.228,24.163,24.163,0,0,0,7.961,3.576,37.417,37.417,0,0,0,9.349,1.158,35.077,35.077,0,0,0,7.271-.81,24.705,24.705,0,0,0,6.925-2.539,15.709,15.709,0,0,0,5.192-4.618,12.1,12.1,0,0,0,2.072-7.265q0-7.381-9.8-11.078t-27.352-7.39Q411,270,404.19,267.8a47.53,47.53,0,0,1-12.117-5.773,28,28,0,0,1-8.539-9,25.46,25.46,0,0,1-3.233-13.276q0-11.535,4.5-18.923a33.149,33.149,0,0,1,11.886-11.653,52.027,52.027,0,0,1,16.616-6,102.413,102.413,0,0,1,18.926-1.732,94.685,94.685,0,0,1,18.808,1.848,49.865,49.865,0,0,1,16.274,6.235A37.4,37.4,0,0,1,479.2,221.178q4.73,7.266,5.657,18.349H453.7q-.693-9.468-7.155-12.811a32.742,32.742,0,0,0-15.235-3.35,56,56,0,0,0-6,.349,20.179,20.179,0,0,0-5.883,1.5,12.177,12.177,0,0,0-4.5,3.35,8.835,8.835,0,0,0-1.846,5.883A8.984,8.984,0,0,0,416.3,241.6a24.782,24.782,0,0,0,8.426,4.5,106.084,106.084,0,0,0,11.885,3.117q6.695,1.385,13.615,3a138.726,138.726,0,0,1,13.966,3.927,46.057,46.057,0,0,1,12.115,6.113,29.668,29.668,0,0,1,8.542,9.461q3.228,5.664,3.227,13.964,0,11.772-4.728,19.736A37.845,37.845,0,0,1,471,318.226a50.48,50.48,0,0,1-17.423,6.809A101.636,101.636,0,0,1,433.615,327a98.854,98.854,0,0,1-20.311-2.082,53.554,53.554,0,0,1-17.656-6.925,39.538,39.538,0,0,1-12.7-12.805q-4.965-7.963-5.421-19.966h31.157A17.932,17.932,0,0,0,410.883,294.342Z" fill="#FF0000"/>
    <path id="Path_3" data-name="Path 3" d="M525.447,294.342a19.1,19.1,0,0,0,5.657,6.228,24.144,24.144,0,0,0,7.961,3.576,37.392,37.392,0,0,0,9.346,1.158,35.033,35.033,0,0,0,7.271-.81,24.67,24.67,0,0,0,6.925-2.539,15.651,15.651,0,0,0,5.192-4.618,12.1,12.1,0,0,0,2.075-7.265q0-7.381-9.807-11.078t-27.352-7.39q-7.151-1.6-13.961-3.8a47.46,47.46,0,0,1-12.114-5.773,27.985,27.985,0,0,1-8.542-9,25.489,25.489,0,0,1-3.233-13.276q0-11.535,4.5-18.923a33.172,33.172,0,0,1,11.886-11.653,52.035,52.035,0,0,1,16.619-6,102.357,102.357,0,0,1,18.923-1.732A94.685,94.685,0,0,1,565.6,203.29a49.882,49.882,0,0,1,16.277,6.235,37.433,37.433,0,0,1,11.885,11.653q4.725,7.266,5.654,18.349H568.261q-.693-9.468-7.155-12.811a32.734,32.734,0,0,0-15.235-3.35,56.06,56.06,0,0,0-6,.349,20.133,20.133,0,0,0-5.88,1.5,12.129,12.129,0,0,0-4.5,3.35,8.82,8.82,0,0,0-1.848,5.883,8.977,8.977,0,0,0,3.233,7.154,24.794,24.794,0,0,0,8.423,4.5,106.084,106.084,0,0,0,11.885,3.117q6.695,1.385,13.618,3a138.988,138.988,0,0,1,13.964,3.927,46.065,46.065,0,0,1,12.114,6.113,29.6,29.6,0,0,1,8.542,9.461q3.228,5.664,3.227,13.964,0,11.772-4.728,19.736a37.843,37.843,0,0,1-12.346,12.806,50.517,50.517,0,0,1-17.424,6.809A101.689,101.689,0,0,1,548.179,327a98.847,98.847,0,0,1-20.308-2.082,53.515,53.515,0,0,1-17.655-6.925,39.473,39.473,0,0,1-12.7-12.805q-4.965-7.963-5.424-19.966h31.157A17.932,17.932,0,0,0,525.447,294.342Z" fill="#FF0000"/>
    <path id="Path_4" data-name="Path 4" d="M646.345,295.379q7.275,7.158,20.931,7.157a28.472,28.472,0,0,0,16.83-4.966q7.051-4.957,8.649-10.5h28.436q-6.828,21.468-20.933,30.7T666.138,327a66.292,66.292,0,0,1-25.024-4.5,51.976,51.976,0,0,1-18.882-12.811,57.75,57.75,0,0,1-11.941-19.844,73.548,73.548,0,0,1-4.21-25.39,70.485,70.485,0,0,1,4.323-24.923,58.584,58.584,0,0,1,12.284-19.969,57.88,57.88,0,0,1,18.995-13.267,60.118,60.118,0,0,1,24.455-4.85q15.011,0,26.159,5.887a52.507,52.507,0,0,1,18.316,15.812,65.482,65.482,0,0,1,10.349,22.615,85.6,85.6,0,0,1,2.272,26.543h-84.85Q639.068,288.224,646.345,295.379ZM682.856,232.6q-5.8-6.462-17.629-6.467a27.782,27.782,0,0,0-12.85,2.656,24.529,24.529,0,0,0-8.19,6.58,24.108,24.108,0,0,0-4.323,8.309,37.984,37.984,0,0,0-1.48,7.845h52.549Q688.656,239.067,682.856,232.6Z" fill="#FF0000"/>
    <path id="Path_5" data-name="Path 5" d="M31.157,58.936V81.093h.464A40.163,40.163,0,0,1,37.85,70.824a40.656,40.656,0,0,1,9-8.077,44.214,44.214,0,0,1,10.846-5.2,39.2,39.2,0,0,1,12-1.843,25.634,25.634,0,0,1,7.154,1.153V87.327q-2.309-.464-5.538-.81a58.363,58.363,0,0,0-6.234-.348,34.951,34.951,0,0,0-15.229,3,26.456,26.456,0,0,0-10.042,8.194,32.875,32.875,0,0,0-5.422,12.117,65.749,65.749,0,0,0-1.617,15v53.779H0V58.936Z" fill="#a2bc33"/>
    <path id="Path_6" data-name="Path 6" d="M290.914,232.8a60.743,60.743,0,0,1-8.643,3.055v31.362q0,18.24-6,26.2t-19.388,7.967q-11.772,0-16.384-7.271-4.628-7.275-4.618-22.044V237.072c-.616-.133-1.224-.187-1.837-.333a66.634,66.634,0,0,1-19.4-7.967A50.551,50.551,0,0,1,203.108,219V278.07a96.272,96.272,0,0,0,1.959,20.2,38.344,38.344,0,0,0,6.812,15.458,31.049,31.049,0,0,0,13.27,9.81Q233.567,327,246.728,327a47.662,47.662,0,0,0,20.308-4.617,36.818,36.818,0,0,0,16.155-15h.7V324h31.154V213.924c-.643.9-1.233,1.81-1.938,2.68C307.864,223.058,300.4,228.507,290.914,232.8Z" fill="#FF0000"/>
    <path id="Path_7" data-name="Path 7" d="M378.034,92.751A54.585,54.585,0,0,1,409.885,60.2a68.254,68.254,0,0,1,25.39-4.495,69.156,69.156,0,0,1,25.5,4.495,54.359,54.359,0,0,1,31.967,32.548,73.289,73.289,0,0,1,4.389,25.964,72.351,72.351,0,0,1-4.389,25.849,56,56,0,0,1-12.463,19.731,54.277,54.277,0,0,1-19.5,12.579,70.676,70.676,0,0,1-25.5,4.385,69.752,69.752,0,0,1-25.39-4.385A54.433,54.433,0,0,1,390.5,164.295a56.044,56.044,0,0,1-12.463-19.731,72.309,72.309,0,0,1-4.379-25.849A73.246,73.246,0,0,1,378.034,92.751Zm29.776,39.928a37.282,37.282,0,0,0,4.728,12.231,25.134,25.134,0,0,0,8.89,8.652q5.538,3.237,13.847,3.233t13.961-3.233a24.912,24.912,0,0,0,9-8.652,37.15,37.15,0,0,0,4.728-12.231,69.721,69.721,0,0,0,1.385-13.964,71.423,71.423,0,0,0-1.385-14.079A35.893,35.893,0,0,0,458.239,92.4a26.307,26.307,0,0,0-9-8.655Q443.583,80.4,435.275,80.4t-13.847,3.344a26.568,26.568,0,0,0-8.89,8.655,36.016,36.016,0,0,0-4.728,12.233,71.423,71.423,0,0,0-1.384,14.079A69.72,69.72,0,0,0,407.81,132.679Z" fill="#a2bc33"/>
    <path id="Path_8" data-name="Path 8" d="M115.374,149.64q7.164,7.158,20.6,7.154a27.712,27.712,0,0,0,16.566-4.96q6.936-4.962,8.509-10.5h27.983q-6.72,21.468-20.6,30.7t-33.575,9.229a64.315,64.315,0,0,1-24.628-4.5,51.067,51.067,0,0,1-18.582-12.806A57.973,57.973,0,0,1,79.894,144.1a74.645,74.645,0,0,1-4.142-25.388,71.5,71.5,0,0,1,4.255-24.925A58.726,58.726,0,0,1,92.1,73.82a56.933,56.933,0,0,1,18.694-13.266,58.314,58.314,0,0,1,24.066-4.847q14.769,0,25.741,5.883A51.92,51.92,0,0,1,178.621,77.4,65.979,65.979,0,0,1,188.8,100.018a86.967,86.967,0,0,1,2.239,26.542h-83.5Q108.211,142.486,115.374,149.64ZM151.3,86.864Q145.6,80.406,133.956,80.4a26.964,26.964,0,0,0-12.648,2.653A24.047,24.047,0,0,0,109,97.942a38.4,38.4,0,0,0-1.456,7.845h51.713Q157.012,93.328,151.3,86.864Z" fill="#a2bc33"/>
    <path id="Path_9" data-name="Path 9" d="M284.874,58.936V74.864h-.465q-6-10.387-14.883-14.776a46.217,46.217,0,0,0-20.656-4.38,48.132,48.132,0,0,0-22.044,4.845A47.4,47.4,0,0,0,210.787,73.6,58.074,58.074,0,0,0,200.98,92.52a74.4,74.4,0,0,0-3.346,22.272,90.631,90.631,0,0,0,2.882,23.193,53.884,53.884,0,0,0,9.119,19.159,43.751,43.751,0,0,0,15.922,12.921q9.7,4.729,23.08,4.731a48.952,48.952,0,0,0,20.657-4.5,32.44,32.44,0,0,0,15.115-13.964h.465v15.7q.224,12.687-6.118,21t-20.192,8.31A32.312,32.312,0,0,1,243.1,197.76q-6.694-3.582-9-12.808H201.558a39.149,39.149,0,0,0,1.551,8.613,31.338,31.338,0,0,0,4.1,8.813,40.869,40.869,0,0,0,12.463,11.885,56.826,56.826,0,0,0,16.206,6.678c.143.036.268.1.411.131a76.3,76.3,0,0,0,17.884,2.192c11.281,0,20.573-1.325,28.094-3.832a49.287,49.287,0,0,0,4.68-1.709q12.232-5.538,18.7-13.5a41.855,41.855,0,0,0,6.973-12.207,38.084,38.084,0,0,0,1.453-4.984,80.348,80.348,0,0,0,1.959-16.387V58.936Zm-1.733,70.51a32.644,32.644,0,0,1-5.192,10.5,25.547,25.547,0,0,1-8.771,7.39,26.1,26.1,0,0,1-12.232,2.769q-7.613,0-12.691-3.234a25.518,25.518,0,0,1-8.194-8.309,34.511,34.511,0,0,1-4.385-11.421,64.966,64.966,0,0,1-1.269-12.811,53.475,53.475,0,0,1,1.5-12.811,31.6,31.6,0,0,1,4.844-10.846,24.957,24.957,0,0,1,8.31-7.5A23.987,23.987,0,0,1,256.946,80.4q8.076,0,13.39,3a23.948,23.948,0,0,1,8.536,8.081,34.813,34.813,0,0,1,4.617,11.655,67.9,67.9,0,0,1,1.385,13.964A43.493,43.493,0,0,1,283.141,129.446Z" fill="#a2bc33"/>
  </g>
</svg>
